<svg height="512" viewBox="0 0 64 64" width="512" xmlns="http://www.w3.org/2000/svg"><g id="Filled_outline" data-name="Filled outline"><path d="m17 27-4 8v12h18v-24h-8c-3.03 0-4.645 1.29-6 4z" fill="#e2e1cf"/><path d="m31 23h7c2.34 0 3.7 1.053 5 3l6 9v12h-18z" fill="#f4f4e6"/><path d="m61 47h-12v-12l8 1c2.377.432 4 1.584 4 4z" fill="#195c85"/><path d="m5 35h8a0 0 0 0 1 0 0v12a0 0 0 0 1 0 0h-10a0 0 0 0 1 0 0v-10a2 2 0 0 1 2-2z" fill="#195c85"/><path d="m13 35h18v12h-18z" fill="#f4f4e6"/><path d="m31 35h18v12h-18z" fill="#e2e1cf"/><path d="m21 27h10v8h-14z" fill="#50b4f8"/><path d="m39 27h-8v8h13z" fill="#2d75bb"/><path d="m7 41h-4v-4a2 2 0 0 1 2-2h6z" fill="#e97424"/><path d="m3 41h4v6h-4z" fill="#fcf05a"/><path d="m57 36-2-.25v3.25a2 2 0 0 0 2 2h4v-1c0-2.416-1.623-3.568-4-4z" fill="#fcf05a"/><path d="m3 47h58v4h-58z" fill="#7d8d9c"/><path d="m28 17h6v6h-6z" fill="#dd3e46"/><circle cx="15" cy="51" fill="#394d5c" r="6"/><circle cx="15" cy="51" fill="#f4f4e6" r="2"/><circle cx="49" cy="51" fill="#394d5c" r="6"/><circle cx="49" cy="51" fill="#f4f4e6" r="2"/><path d="m16 38h4v2h-4z"/><path d="m34 38h4v2h-4z"/><path d="m57.124 35.008-7.546-.943-5.746-8.62a6.6 6.6 0 0 0 -5.832-3.445h-3v-6h-8v6h-4c-3.231 0-5.293 1.361-6.895 4.553l-3.723 7.447h-7.382a3 3 0 0 0 -3 3v14a1 1 0 0 0 1 1h5.08a6.991 6.991 0 0 0 13.84 0h20.16a6.991 6.991 0 0 0 13.84 0h5.08a1 1 0 0 0 1-1v-11c0-1.877-.836-4.265-4.876-4.992zm-19.124-11.008c1.8 0 2.927.692 4.168 2.555l4.964 7.445h-2.577l-4.707-7.53a1 1 0 0 0 -.848-.47h-7v-2zm4.2 10h-10.2v-6h6.446zm-13.2-16h4v4h-4zm-11.106 9.448c1.277-2.548 2.614-3.448 5.106-3.448h7v2h-9a1 1 0 0 0 -.895.553l-3.723 7.447h-1.764zm12.106.552v6h-11.382l3-6zm-26 9a1 1 0 0 1 1-1h4.132l-2.667 4h-2.465zm0 5h2v4h-2zm4.08 8h-4.08v-2h4.685a6.937 6.937 0 0 0 -.605 2zm-.08-4v-4.7l3.535-5.3h.465v8.685a7.037 7.037 0 0 0 -1.889 1.315zm7 10a5 5 0 1 1 5-5 5.006 5.006 0 0 1 -5 5zm4.889-10a6.864 6.864 0 0 0 -5.889-1.92v-8.08h16v6h-10v2h10v2zm22.191 4h-20.16a6.937 6.937 0 0 0 -.605-2h21.37a6.937 6.937 0 0 0 -.605 2zm-10.08-4v-10h16v6h-14v2h14v.08a6.974 6.974 0 0 0 -3.889 1.92zm17 10a5 5 0 1 1 5-5 5.006 5.006 0 0 1 -5 5zm11-6h-4.08a6.937 6.937 0 0 0 -.605-2h4.685zm0-4h-6.111a6.974 6.974 0 0 0 -3.889-1.92v-7.947l4 .5v2.367a3 3 0 0 0 3 3h3zm-3-6a1 1 0 0 1 -1-1v-2.118l.822.1c2.817.51 3.178 1.881 3.178 3.018z"/><path d="m16 42h2v2h-2z"/><path d="m15 48a3 3 0 1 0 3 3 3 3 0 0 0 -3-3zm0 4a1 1 0 1 1 1-1 1 1 0 0 1 -1 1z"/><path d="m49 48a3 3 0 1 0 3 3 3 3 0 0 0 -3-3zm0 4a1 1 0 1 1 1-1 1 1 0 0 1 -1 1z"/><path d="m47.862 10.494a1 1 0 0 0 -1.027-.48l-5.044.84-.811-4.054a1 1 0 0 0 -1.687-.511l-6 6 1.414 1.414 4.679-4.679.634 3.176a1 1 0 0 0 1.145.79l3.421-.57-2.367 2.959a1 1 0 0 0 -.019 1.221l1.613 2.151-6.7-.745-.22 1.988 9 1a1.014 1.014 0 0 0 .107.006 1 1 0 0 0 .8-1.6l-2.535-3.38 3.516-4.395a1 1 0 0 0 .081-1.131z"/><path d="m21.98 12.2.634-3.168 4.679 4.679 1.414-1.414-6-6a1 1 0 0 0 -1.687.503l-.811 4.05-5.044-.84a1 1 0 0 0 -.946 1.611l3.516 4.395-2.535 3.384a1 1 0 0 0 .8 1.6 1.014 1.014 0 0 0 .11-.006l9-1-.22-1.988-6.7.745 1.61-2.151a1 1 0 0 0 -.019-1.225l-2.367-2.959 3.421.57a1 1 0 0 0 1.145-.786z"/></g></svg>