<svg id="Capa_1" enable-background="new 0 0 512 512" height="512" viewBox="0 0 512 512" width="512" xmlns="http://www.w3.org/2000/svg"><g><path d="m325.105 121.655h-30c4.852 0 8.785 3.933 8.785 8.785v205.305l-284.971.877v.092l314.971-.969v-205.305c.001-4.851-3.933-8.785-8.785-8.785z" fill="#e7e7e7"/><path d="m18.919 336.715v-206.274c0-4.852 3.933-8.785 8.785-8.785h297.401c4.852 0 8.785 3.933 8.785 8.785v205.305" fill="#fbfbfb"/><path d="m325.105 121.655h-30c4.852 0 8.785 3.933 8.785 8.785v205.305l-284.971.877v.092l314.971-.969v-205.305c.001-4.851-3.933-8.785-8.785-8.785z" fill="#e3e0e4"/><path d="m18.919 272.023h314.972v67.153h-314.972z" fill="#df646e"/><path d="m467.836 340.265h-133.945v-174.497h77.041c3.221 0 6.301 1.312 8.522 3.63l58.157 60.689c2.084 2.175 3.248 5.071 3.248 8.083v89.072c0 7.193-5.83 13.023-13.023 13.023z" fill="#dc4955"/><path d="m303.891 272.023h30v67.153h-30z" fill="#dc4955"/><path d="m477.611 230.087-58.157-60.689c-2.221-2.318-5.301-3.63-8.522-3.63h-30c3.221 0 6.301 1.312 8.522 3.63l58.157 60.689c2.084 2.175 3.248 5.071 3.248 8.083v89.072c0 7.192-5.83 13.022-13.022 13.022h30c7.192 0 13.022-5.83 13.022-13.022v-89.072c0-3.012-1.164-5.908-3.248-8.083z" fill="#d82f3c"/><path d="m449.141 287.396v1.503c0 7.819 6.339 14.158 14.158 14.158h17.561v-29.817h-17.561c-7.82-.001-14.158 6.338-14.158 14.156z" fill="#f8e076"/><path d="m480.549 232.025-36.876-38.481h-58.517c-5.883 0-10.652 4.769-10.652 10.652v30.741c0 5.883 4.769 10.652 10.652 10.652h95.702v-12.794c.001-.286-.11-.562-.309-.77z" fill="#fbfbfb"/><path d="m480.549 232.025-36.876-38.481h-30l36.876 38.481c.199.207.31.483.31.77v12.794h30v-12.794c0-.286-.111-.562-.31-.77z" fill="#e7e7e7"/><path d="m491.1 369.979h-470.2c-7.401 0-13.4-5.999-13.4-13.4v-3.878c0-7.401 5.999-13.4 13.4-13.4h470.2c7.401 0 13.4 5.999 13.4 13.4v3.878c0 7.401-5.999 13.4-13.4 13.4z" fill="#c8c3ca"/><ellipse cx="405.397" cy="369.979" fill="#8c818f" rx="49.449" ry="49.153"/><ellipse cx="405.397" cy="369.979" fill="#c8c3ca" rx="17.349" ry="17.245"/><ellipse cx="82.996" cy="369.979" fill="#8c818f" rx="49.449" ry="49.153"/><path d="m405.397 320.826c-5.23 0-10.268.813-15 2.309 19.975 6.315 34.449 24.896 34.449 46.844s-14.474 40.529-34.449 46.844c4.732 1.496 9.77 2.309 15 2.309 27.31 0 49.449-22.007 49.449-49.153s-22.139-49.153-49.449-49.153z" fill="#766d78"/><path d="m82.996 320.826c-5.23 0-10.268.813-15 2.309 19.975 6.315 34.449 24.896 34.449 46.844s-14.474 40.529-34.449 46.844c4.732 1.496 9.77 2.309 15 2.309 27.31 0 49.449-22.007 49.449-49.153s-22.139-49.153-49.449-49.153z" fill="#766d78"/><ellipse cx="82.996" cy="369.979" fill="#c8c3ca" rx="17.349" ry="17.245"/><path d="m399.59 165.768h-33.984v-20.121c0-9.385 7.608-16.992 16.992-16.992 9.384 0 16.992 7.608 16.992 16.992z" fill="#f8e076"/><ellipse cx="240.474" cy="269.191" fill="#c8c3ca" rx="34.029" ry="34.029" transform="matrix(.924 -.383 .383 .924 -84.71 112.516)"/><path d="m240.474 235.162c-5.385 0-10.474 1.256-15 3.482 11.27 5.545 19.029 17.138 19.029 30.547s-7.759 25.002-19.029 30.547c4.526 2.227 9.615 3.482 15 3.482 18.794 0 34.029-15.235 34.029-34.029s-15.235-34.029-34.029-34.029z" fill="#b1abb4"/><path d="" style="fill:none;stroke:#000;stroke-width:15;stroke-linecap:round;stroke-linejoin:round;stroke-miterlimit:10"/><path d="" style="fill:none;stroke:#000;stroke-width:15;stroke-linecap:round;stroke-linejoin:round;stroke-miterlimit:10"/><path d="m491.1 331.801h-3.25c.334-1.475.509-3.001.509-4.559v-89.072c0-4.97-1.894-9.683-5.333-13.272l-58.157-60.689c-3.618-3.776-8.698-5.941-13.938-5.941h-3.842v-12.621c0-13.505-10.987-24.492-24.492-24.492s-24.492 10.987-24.492 24.492v12.621h-16.715v-27.828c0-8.979-7.306-16.285-16.285-16.285h-31.51v-13.788h37.862c4.143 0 7.5-3.358 7.5-7.5s-3.357-7.5-7.5-7.5h-308.889c-4.143 0-7.5 3.358-7.5 7.5s3.357 7.5 7.5 7.5h30.346v13.788h-25.21c-8.979 0-16.285 7.306-16.285 16.285v203.66c-6.767 3.463-11.419 10.492-11.419 18.602v3.878c0 11.524 9.376 20.9 20.9 20.9h5.662c3.702 27.704 27.59 49.153 56.434 49.153s52.732-21.449 56.434-49.153h105.896c4.143 0 7.5-3.358 7.5-7.5s-3.357-7.5-7.5-7.5h-105.896c-.737-5.515-2.272-10.779-4.49-15.678h218.513c-2.218 4.899-3.753 10.163-4.49 15.678h-73.637c-4.143 0-7.5 3.358-7.5 7.5s3.357 7.5 7.5 7.5h73.637c3.702 27.704 27.59 49.153 56.435 49.153 28.844 0 52.732-21.449 56.434-49.153h29.268c11.524 0 20.9-9.376 20.9-20.9v-3.878c0-11.525-9.376-20.901-20.9-20.901zm-17.748-93.712h-88.195c-1.738 0-3.152-1.414-3.152-3.152v-30.741c0-1.738 1.414-3.152 3.152-3.152h54.169c.022 0 .042-.003.064-.003l32.807 34.236c.73.762 1.134 1.759 1.155 2.812zm-100.247-92.442c0-5.234 4.258-9.492 9.492-9.492s9.492 4.258 9.492 9.492v12.621h-18.984zm-94.509-31.492h-104.077v-13.788h104.077zm-250.892 15h95.922c4.143 0 7.5-3.358 7.5-7.5s-3.357-7.5-7.5-7.5h-55.712v-13.788h91.604v13.788h-5.893c-4.143 0-7.5 3.358-7.5 7.5s3.357 7.5 7.5 7.5h171.479c.709 0 1.285.577 1.285 1.285v134.082h-44.657c-.928-8.256-4.281-15.788-9.336-21.86h13.699c4.143 0 7.5-3.358 7.5-7.5s-3.357-7.5-7.5-7.5c0 0-45.506 0-45.621 0-21.32 0-38.931 16.152-41.26 36.86h-172.795v-134.082c0-.708.576-1.285 1.285-1.285zm212.771 113.508c14.628 0 26.528 11.901 26.528 26.529s-11.9 26.529-26.528 26.529-26.529-11.901-26.529-26.529c-.001-14.629 11.901-26.529 26.529-26.529zm-225.475 113.916v-3.878c0-3.253 2.646-5.9 5.9-5.9h10.152c-2.218 4.899-3.753 10.163-4.49 15.678h-5.662c-3.254 0-5.9-2.646-5.9-5.9zm67.996 55.054c-23.13 0-41.948-18.686-41.948-41.653 0-22.968 18.818-41.653 41.948-41.653s41.948 18.686 41.948 41.653-18.818 41.653-41.948 41.653zm0-98.307c-16.637 0-31.629 7.136-42.051 18.491-.107-.004-.211-.016-.319-.016h-14.207v-52.279h173.828c4.604 17.917 20.894 31.198 40.228 31.198 19.333 0 35.623-13.28 40.227-31.198h45.689v52.279h-201.36c-10.421-11.345-25.405-18.475-42.035-18.475zm280.342 18.475h-21.947v-158.533h69.541c1.171 0 2.304.481 3.107 1.319l10.979 11.456h-39.861c-10.009 0-18.152 8.143-18.152 18.152v30.741c0 10.009 8.144 18.152 18.152 18.152h88.203v12.65h-10.061c-11.941 0-21.657 9.716-21.657 21.658v1.503c0 11.942 9.716 21.658 21.657 21.658h10.061v16.686c0 1.855-.93 3.543-2.423 4.559h-23.503c-10.421-11.345-25.406-18.475-42.035-18.475-16.63 0-31.616 7.13-42.037 18.476-.009-.001-.017-.002-.024-.002zm110.02-51.062v14.818h-10.06c-3.671 0-6.657-2.987-6.657-6.658v-1.503c0-3.671 2.986-6.658 6.657-6.658h10.06zm-67.961 130.894c-23.131 0-41.949-18.686-41.949-41.653 0-22.968 18.818-41.653 41.949-41.653 23.13 0 41.948 18.686 41.948 41.653.001 22.967-18.818 41.653-41.948 41.653zm91.603-55.054c0 3.253-2.647 5.9-5.9 5.9h-29.268c-.737-5.515-2.272-10.779-4.49-15.678h33.758c3.254 0 5.9 2.647 5.9 5.9z"/><path d="m405.397 345.234c-13.702 0-24.85 11.101-24.85 24.746s11.147 24.745 24.85 24.745c13.701 0 24.849-11.101 24.849-24.745 0-13.646-11.147-24.746-24.849-24.746zm0 34.491c-5.431 0-9.85-4.372-9.85-9.745 0-5.374 4.419-9.746 9.85-9.746s9.849 4.372 9.849 9.746c0 5.373-4.418 9.745-9.849 9.745z"/><path d="m375.068 284.82h9.387c4.143 0 7.5-3.358 7.5-7.5s-3.357-7.5-7.5-7.5h-9.387c-4.143 0-7.5 3.358-7.5 7.5s3.358 7.5 7.5 7.5z"/><path d="m82.996 345.234c-13.701 0-24.849 11.101-24.849 24.746s11.147 24.745 24.849 24.745 24.849-11.101 24.849-24.745c0-13.646-11.148-24.746-24.849-24.746zm0 34.491c-5.431 0-9.849-4.372-9.849-9.745 0-5.374 4.418-9.746 9.849-9.746s9.849 4.372 9.849 9.746c0 5.373-4.418 9.745-9.849 9.745z"/><path d="m45.873 183.571c-4.143 0-7.5 3.358-7.5 7.5s3.357 7.5 7.5 7.5h261.734c4.143 0 7.5-3.358 7.5-7.5s-3.357-7.5-7.5-7.5h-7.645v-23.886h7.645c4.143 0 7.5-3.358 7.5-7.5s-3.357-7.5-7.5-7.5h-261.734c-4.143 0-7.5 3.358-7.5 7.5s3.357 7.5 7.5 7.5h19.563v23.886zm176.367 0h-16.36v-23.886h16.36zm15-23.886h16.361v23.886h-16.361zm-46.36 23.886h-16.361v-23.886h16.361zm-31.361 0h-16.361v-23.886h16.361zm-31.362 0h-16.36v-23.886h16.36zm156.805 0h-16.36v-23.886h16.36zm-204.526-23.886h16.361v23.886h-16.361z"/></g></svg>